<?xml version="1.0" encoding="UTF-8"?>
<!DOCTYPE svg PUBLIC "-//W3C//DTD SVG 1.1//EN" "http://www.w3.org/Graphics/SVG/1.1/DTD/svg11.dtd">
<!-- Creator: CorelDRAW 2020 (64-Bit) -->
<svg xmlns="http://www.w3.org/2000/svg" xml:space="preserve" width="206.647mm" height="45.3142mm" version="1.1" style="shape-rendering:geometricPrecision; text-rendering:geometricPrecision; image-rendering:optimizeQuality; fill-rule:evenodd; clip-rule:evenodd"
viewBox="0 0 19116.45 4191.91"
 xmlns:xlink="http://www.w3.org/1999/xlink"
 xmlns:xodm="http://www.corel.com/coreldraw/odm/2003">
 <defs>
  <style type="text/css">
   <![CDATA[
    .fil5 {fill:#C3648D}
    .fil7 {fill:#5D9E4F}
    .fil6 {fill:#6E4942}
    .fil1 {fill:#222124;fill-rule:nonzero}
    .fil2 {fill:url(#id0)}
    .fil8 {fill:url(#id1)}
    .fil3 {fill:url(#id2)}
    .fil0 {fill:url(#id3)}
    .fil4 {fill:url(#id4)}
   ]]>
  </style>
  <linearGradient id="id0" gradientUnits="userSpaceOnUse" x1="1879.35" y1="-396.02" x2="1483.26" y2="611.4">
   <stop offset="0" style="stop-opacity:1; stop-color:#444D32"/>
   <stop offset="1" style="stop-opacity:1; stop-color:#646C4F"/>
  </linearGradient>
  <linearGradient id="id1" gradientUnits="userSpaceOnUse" x1="3107.23" y1="-236.91" x2="4195.67" y2="2095.97">
   <stop offset="0" style="stop-opacity:1; stop-color:#1E7D4F"/>
   <stop offset="1" style="stop-opacity:1; stop-color:#335D48"/>
  </linearGradient>
  <linearGradient id="id2" gradientUnits="userSpaceOnUse" x1="118.64" y1="3228.77" x2="1084.23" y2="881.17">
   <stop offset="0" style="stop-opacity:1; stop-color:#AF5C47"/>
   <stop offset="1" style="stop-opacity:1; stop-color:#AF5344"/>
  </linearGradient>
  <linearGradient id="id3" gradientUnits="userSpaceOnUse" x1="-222.1" y1="1654.32" x2="1684.45" y2="450.59">
   <stop offset="0" style="stop-opacity:1; stop-color:#DAC44F"/>
   <stop offset="1" style="stop-opacity:1; stop-color:#D39A47"/>
  </linearGradient>
  <linearGradient id="id4" gradientUnits="userSpaceOnUse" x1="2307.75" y1="301.54" x2="3311.32" y2="2937.84">
   <stop offset="0" style="stop-opacity:1; stop-color:#529ABF"/>
   <stop offset="1" style="stop-opacity:1; stop-color:#276293"/>
  </linearGradient>
 </defs>
 <g id="Capa_x0020_1">
  <metadata id="CorelCorpID_0Corel-Layer"/>
  <path class="fil0" d="M328.35 1075.23c299.97,-456.89 1016.78,-664.43 1355.51,-623.63 -171.66,130.5 -237.3,180.75 -378.04,344.79 -384.62,90.77 -1124.54,607.66 -1296.01,1435.78 -58.33,-271.07 153.94,-1085 373.06,-1338.67 -22.98,65.13 -65.41,192.58 -54.51,181.73z"/>
  <polygon class="fil1" points="5668.08,1612.52 5668.08,878.7 5342.15,1446.51 5290.5,1446.51 4964.57,878.7 4964.57,1612.52 4876.46,1612.52 4876.46,718.87 4967.08,718.87 5315.76,1330.55 5666.97,718.87 5756.18,718.87 5756.18,1612.52 "/>
  <path class="fil1" d="M6167.78 1625.04c-71.27,0 -124.48,-23.57 -159.18,-70.97 -34.89,-47.51 -52.29,-118.03 -52.29,-212.12l0 -385.25 85.58 0 0 370.19c0,148.41 50.69,222.68 152.26,222.68 25.16,0 49.95,-4.11 74.27,-12.33 24.23,-8.61 46.76,-20.68 67.26,-36.66 20.65,-15.91 39.08,-34.89 55.54,-56.69 16.27,-21.68 29.45,-46.48 39.56,-74.18l0 -413 85.68 0 0 545.08c0,23.65 9.81,35.45 30.01,35.45l0 75.29c-9.99,1.67 -18.05,2.6 -24.5,2.6l-13.17 0c-20.12,-0.93 -36.59,-8.03 -49.02,-21.5 -12.54,-13.39 -19.09,-31.53 -19.09,-54.16l0 -75.48c-28.42,51.17 -67.23,91.01 -116.33,118.98 -49.02,28.23 -101.31,42.07 -156.58,42.07z"/>
  <path class="fil1" d="M7261.52 1612.52l-85.59 0 0 -366.15c0,-78.18 -11.58,-134.57 -34.7,-170.02 -22.9,-35.18 -58.54,-52.76 -106.15,-52.76 -25.24,0 -50.4,4.59 -75.66,13.95 -25.25,9.14 -48.34,22.16 -69.86,38.81 -21.31,16.84 -40.48,36.74 -57.13,59.84 -16.94,23.19 -28.9,47.98 -36.59,74.74l0 401.59 -85.58 0 0 -655.8 77.92 0 0 148.52c26.85,-47.72 65.27,-86.35 115.22,-115.62 50.06,-29.45 104.38,-44.03 163.13,-44.03 36.08,0 66.57,6.73 91.83,20.2 25.25,13.46 45.37,32.16 60.32,56.38 15.06,24.5 25.93,54.16 32.66,89.61 6.73,35.05 10.19,74.15 10.19,116.89l0 383.83z"/>
  <path class="fil1" d="M7444.08 956.72l85.58 0 0 655.8 -85.58 0 0 -655.8zm0 -263.02l85.58 0 0 125.9 -85.58 0 0 -125.9z"/>
  <path class="fil1" d="M7673.09 1282.91c0,-46.22 8.03,-89.8 24.02,-130.84 15.73,-41.25 38.26,-77.17 67.35,-107.66 28.89,-30.76 63.41,-54.8 103.63,-72.38 40.52,-17.6 84.92,-26.38 133.46,-26.38 62.3,0 116.18,13.84 162.47,42.08 46.02,28.08 80.91,65.93 104.56,113.84l-83.33 26.35c-18.24,-33.56 -44.14,-59.65 -77.25,-78.63 -33.12,-18.71 -69.86,-28.26 -110.07,-28.26 -33.59,0 -64.82,6.66 -93.72,20.12 -29.2,13.47 -54.16,31.71 -75.66,54.88 -21.24,22.82 -38.16,50.43 -50.43,82.31 -12.06,31.98 -18.03,66.68 -18.03,104.57 0,36.85 6.25,71.74 18.69,104.27 12.8,32.93 29.94,61.19 51.62,84.94 22.01,24.02 47.24,42.82 76.14,56.76 29.08,13.77 59.86,20.76 92.5,20.76 21.05,0 41.92,-2.99 62.49,-8.77 20.39,-5.81 39.56,-14.14 57.13,-24.52 17.58,-10.66 32.82,-22.43 45.37,-35.9 12.43,-13.39 21.23,-27.78 26.37,-42.76l84.44 25.26c-9.33,23.27 -22.72,45.07 -40.3,64.72 -17.87,19.64 -38.45,36.85 -62.49,51.64 -23.76,14.48 -50.21,25.8 -79.11,33.94 -29.08,7.84 -59.01,11.79 -89.98,11.79 -47.88,0 -92.13,-8.99 -132.34,-27.04 -40.22,-18.06 -74.89,-42.85 -104.27,-74.27 -29.37,-31.52 -52.28,-67.52 -68.74,-108.77 -16.17,-41.05 -24.5,-85.11 -24.5,-132.05z"/>
  <path class="fil1" d="M8409.18 956.72l85.59 0 0 655.8 -85.59 0 0 -655.8zm0 -263.02l85.59 0 0 125.9 -85.59 0 0 -125.9z"/>
  <path class="fil1" d="M8994.49 1549.59c35.15,0 67.34,-7.56 96.24,-22.62 28.9,-14.98 53.69,-34.89 74.27,-59.68 20.57,-24.79 36.29,-52.94 47.24,-84.47 10.84,-31.42 16.36,-63.87 16.36,-97.54 0,-35.25 -6.18,-68.84 -18.98,-100.63 -12.43,-31.98 -29.85,-59.95 -51.54,-84.26 -21.79,-24.24 -47.7,-43.77 -77.34,-58.09 -29.75,-14.13 -61.93,-21.23 -96.45,-21.23 -21.69,0 -44.6,4.4 -68.46,13.1 -24.05,8.88 -46.21,20.65 -66.86,35.15 -20.31,14.79 -38.18,32 -52.76,51.65 -14.76,19.91 -23.86,40.77 -27.01,62.46l0 201.28c10.18,23.56 22.9,45.36 38.34,65.46 15.53,20.12 33.11,37.7 52.76,52.28 19.91,14.51 40.96,26.11 63.68,34.71 22.64,8.32 46.21,12.43 70.52,12.43zm23.86 75.48c-55.27,0 -104.11,-13.92 -146.66,-42.18 -42.37,-27.86 -76.59,-63.5 -102.49,-106.34l0 404.15 -85.59 0 0 -923.97 76.78 0 0 127.21c26.83,-41.18 61.54,-74.44 104.27,-100.19 42.84,-25.35 89.6,-38.15 139.74,-38.15 45.36,0 86.99,9.35 124.65,28.23 37.81,19.01 70.63,43.88 98.12,75.39 27.78,31.42 49.29,67.8 65.01,108.96 15.51,41.23 23.2,83.52 23.2,127.1 0,46.22 -7.22,89.98 -21.34,130.84 -14.29,41.25 -34.68,77.25 -61.06,108.22 -26.38,31.05 -57.8,55.54 -94.39,73.71 -36.56,17.95 -76.6,27.01 -120.26,27.01z"/>
  <path class="fil1" d="M9645.24 1559.55c44.44,0 85.39,-8.33 122.62,-24.97 37.41,-16.84 65.67,-39.08 84.92,-66.79 7.58,-7.47 13.39,-15.69 17.02,-24.57 3.77,-8.81 5.62,-16.84 5.62,-24.52l0 -106.79c-28.42,-10.95 -58.09,-19.46 -88.58,-25.26 -30.75,-5.81 -62.01,-8.88 -93.72,-8.88 -60.6,0 -109.7,12.53 -147.37,37.77 -37.71,25.16 -56.69,58.38 -56.69,99.43 0,20.19 4.03,38.92 12.06,56.78 7.85,17.47 18.7,32.82 32.64,45.74 13.84,13.17 30.49,23.39 49.66,31.05 19.46,7.4 39.85,11.03 61.82,11.03zm-20.09 65.49c-31.05,0 -59.97,-5.06 -86.32,-15.72 -26.38,-10.4 -49.5,-24.69 -69.12,-43.3 -19.75,-18.42 -35.18,-39.94 -46.12,-64.74 -10.85,-24.79 -16.18,-51.62 -16.18,-80.04 0,-28.45 6.73,-54.83 20.13,-79.33 13.46,-24.31 32.16,-45.37 56.47,-62.94 24.52,-17.58 53.42,-31.23 86.99,-40.95 33.49,-9.47 70.33,-14.32 110.84,-14.32 33.57,0 67.23,3 101.76,8.8 34.51,5.71 65.01,14.29 91.83,25.13l0 -59.09c0,-57.9 -16.17,-104.01 -48.99,-137.97 -32.66,-33.93 -78.02,-50.88 -135.82,-50.88 -33.56,0 -68.09,6.66 -103.24,20.13 -35.37,13.36 -71,32.64 -107.11,57.79l-30.01 -56.58c84.63,-56.97 166.75,-85.39 246.53,-85.39 82.21,0 146.93,22.91 193.88,69.2 46.96,46.03 70.33,109.92 70.33,191.29l0 295.64c0,23.67 10.66,35.44 31.42,35.44l0 75.29c-14.02,2.63 -24.97,3.75 -32.53,3.75 -21.79,0 -38.92,-5.25 -50.98,-16.1 -12.25,-10.95 -18.72,-26.27 -19.65,-45.44l-2.52 -51.65c-30.01,39.4 -68,69.78 -113.81,90.54 -45.85,21.05 -95.05,31.44 -147.78,31.44z"/>
  <path class="fil1" d="M10149.79 693.71l85.58 0 0 770.27c0,24.34 6.73,43.58 20.1,57.53 13.47,13.57 32.45,20.49 56.68,20.49 9.25,0 20.2,-1.14 32.82,-3.74 12.54,-2.54 24.34,-5.73 35.18,-10.1l15.14 69.38c-15.99,6.65 -35.45,11.98 -58.54,16.17 -23.2,4.4 -43.03,6.48 -59.76,6.48 -39.58,0 -70.52,-11.14 -93.27,-33.49 -22.62,-22.16 -33.94,-53.4 -33.94,-93.72l0 -799.28z"/>
  <path class="fil1" d="M10488.48 956.72l85.58 0 0 655.8 -85.58 0 0 -655.8zm0 -263.02l85.58 0 0 125.9 -85.58 0 0 -125.9z"/>
  <path class="fil1" d="M11051.08 1549.59c21.05,0 43.49,-4.12 67.35,-12.43 23.86,-8.59 46.21,-20.2 67.23,-34.71 21.16,-14.58 38.92,-31.97 53.5,-51.62 14.79,-19.64 23.86,-40.88 27.04,-63.6l0 -202.57c-8.32,-22.83 -20.57,-43.77 -36.56,-63.68 -15.72,-19.65 -33.96,-37.04 -54.53,-52.1 -20.68,-15.25 -42.55,-26.85 -66.23,-35.37 -23.39,-8.21 -46.48,-12.43 -69.2,-12.43 -35.07,0 -67.08,7.66 -95.78,22.64 -28.43,15.06 -52.95,34.98 -73.52,59.66 -20.57,24.78 -36.27,53.23 -47.23,85.21 -10.84,31.7 -16.38,64.45 -16.38,98.01 0,35.18 6.47,68.74 19.01,100.64 12.43,31.9 29.82,59.86 51.52,83.72 21.79,23.84 47.72,43.01 77.54,57.24 29.64,14.29 61.72,21.4 96.24,21.4zm-18.98 75.48c-45.36,0 -87.27,-9.25 -125.79,-28.23 -38.63,-18.91 -71.74,-43.77 -99.53,-74.92 -27.57,-31.05 -49.29,-66.86 -64.79,-107.56 -15.43,-40.78 -23.12,-83.33 -23.12,-127.76 0,-46.29 7.39,-89.95 22.64,-131.68 15.06,-41.33 35.93,-77.71 62.2,-108.67 26.46,-30.97 57.9,-55.57 94.46,-73.78 36.56,-17.79 76.6,-26.85 119.99,-26.85 55.57,0 104.67,14.31 147.4,43.29 42.85,28.82 76.41,64.08 100.64,105.22l0 -400.37 85.59 0 0 807.97c0,23.67 10.18,35.45 30.38,35.45l0 75.39c-12.8,2.52 -22.72,3.74 -30.38,3.74 -20.13,0 -37.71,-6.47 -52.77,-19.45 -15.25,-13 -22.64,-28.71 -22.64,-47.24l0 -64.05c-26.17,42.66 -61.35,76.59 -105.68,101.75 -44.69,25.26 -90.72,37.78 -138.6,37.78z"/>
  <path class="fil1" d="M11730.78 1559.55c44.4,0 85.39,-8.33 122.61,-24.97 37.41,-16.84 65.64,-39.08 84.81,-66.79 7.69,-7.47 13.47,-15.69 17.13,-24.57 3.74,-8.81 5.62,-16.84 5.62,-24.52l0 -106.79c-28.45,-10.95 -58.09,-19.46 -88.58,-25.26 -30.78,-5.81 -62.01,-8.88 -93.72,-8.88 -60.6,0 -109.7,12.53 -147.4,37.77 -37.7,25.16 -56.68,58.38 -56.68,99.43 0,20.19 3.92,38.92 12.06,56.78 7.87,17.47 18.71,32.82 32.66,45.74 13.84,13.17 30.49,23.39 49.66,31.05 19.46,7.4 39.85,11.03 61.83,11.03zm-20.13 65.49c-31.05,0 -59.94,-5.06 -86.32,-15.72 -26.38,-10.4 -49.47,-24.69 -69.11,-43.3 -19.73,-18.42 -35.16,-39.94 -46.11,-64.74 -10.84,-24.79 -16.17,-51.62 -16.17,-80.04 0,-28.45 6.73,-54.83 20.09,-79.33 13.47,-24.31 32.18,-45.37 56.49,-62.94 24.5,-17.58 53.4,-31.23 86.99,-40.95 33.49,-9.47 70.33,-14.32 110.82,-14.32 33.59,0 67.25,3 101.75,8.8 34.51,5.71 65.01,14.29 91.86,25.13l0 -59.09c0,-57.9 -16.2,-104.01 -49.02,-137.97 -32.64,-33.93 -77.99,-50.88 -135.89,-50.88 -33.49,0 -68,6.66 -103.16,20.13 -35.37,13.36 -70.99,32.64 -107.08,57.79l-30.04 -56.58c84.65,-56.97 166.76,-85.39 246.53,-85.39 82.21,0 146.96,22.91 193.91,69.2 46.96,46.03 70.32,109.92 70.32,191.29l0 295.64c0,23.67 10.68,35.44 31.44,35.44l0 75.29c-14.03,2.63 -24.98,3.75 -32.56,3.75 -21.79,0 -38.89,-5.25 -50.98,-16.1 -12.25,-10.95 -18.69,-26.27 -19.62,-45.44l-2.54 -51.65c-30.01,39.4 -67.97,69.78 -113.81,90.54 -45.84,21.05 -95.02,31.44 -147.78,31.44z"/>
  <path class="fil1" d="M12519.87 1549.59c21.03,0 43.48,-4.12 67.35,-12.43 23.75,-8.59 46.18,-20.2 67.23,-34.71 21.13,-14.58 38.92,-31.97 53.5,-51.62 14.76,-19.64 23.83,-40.88 27.01,-63.6l0 -202.57c-8.33,-22.83 -20.57,-43.77 -36.56,-63.68 -15.72,-19.65 -33.96,-37.04 -54.53,-52.1 -20.65,-15.25 -42.55,-26.85 -66.2,-35.37 -23.39,-8.21 -46.5,-12.43 -69.22,-12.43 -35.15,0 -67.05,7.66 -95.76,22.64 -28.45,15.06 -52.94,34.98 -73.52,59.66 -20.57,24.78 -36.29,53.23 -47.24,85.21 -10.84,31.7 -16.36,64.45 -16.36,98.01 0,35.18 6.44,68.74 18.98,100.64 12.43,31.9 29.82,59.86 51.54,83.72 21.79,23.84 47.7,43.01 77.52,57.24 29.67,14.29 61.75,21.4 96.26,21.4zm-19.01 75.48c-45.36,0 -87.24,-9.25 -125.88,-28.23 -38.63,-18.91 -71.64,-43.77 -99.42,-74.92 -27.6,-31.05 -49.29,-66.86 -64.82,-107.56 -15.51,-40.78 -23.09,-83.33 -23.09,-127.76 0,-46.29 7.39,-89.95 22.64,-131.68 15.06,-41.33 35.9,-77.71 62.2,-108.67 26.46,-30.97 57.87,-55.57 94.46,-73.78 36.45,-17.79 76.59,-26.85 119.99,-26.85 55.54,0 104.64,14.31 147.4,43.29 42.82,28.82 76.41,64.08 100.61,105.22l0 -400.37 85.58 0 0 807.97c0,23.67 10.21,35.45 30.31,35.45l0 75.39c-12.7,2.52 -22.61,3.74 -30.31,3.74 -20.09,0 -37.67,-6.47 -52.73,-19.45 -15.25,-13 -22.64,-28.71 -22.64,-47.24l0 -64.05c-26.2,42.66 -61.35,76.59 -105.68,101.75 -44.73,25.26 -90.72,37.78 -138.63,37.78z"/>
  <path class="fil1" d="M13623.56 1549.59c21.05,0 43.51,-4.12 67.34,-12.43 23.86,-8.59 46.21,-20.2 67.26,-34.71 21.13,-14.58 38.89,-31.97 53.5,-51.62 14.77,-19.64 23.84,-40.88 27.02,-63.6l0 -202.57c-8.33,-22.83 -20.57,-43.77 -36.56,-63.68 -15.73,-19.65 -33.97,-37.04 -54.54,-52.1 -20.68,-15.25 -42.54,-26.85 -66.23,-35.37 -23.38,-8.21 -46.48,-12.43 -69.11,-12.43 -35.15,0 -67.05,7.66 -95.87,22.64 -28.42,15.06 -52.91,34.98 -73.52,59.66 -20.57,24.78 -36.27,53.23 -47.22,85.21 -10.85,31.7 -16.36,64.45 -16.36,98.01 0,35.18 6.45,68.74 18.98,100.64 12.43,31.9 29.82,59.86 51.55,83.72 21.79,23.84 47.69,43.01 77.51,57.24 29.65,14.29 61.72,21.4 96.25,21.4zm-18.98 75.48c-45.25,0 -87.17,-9.25 -125.8,-28.23 -38.63,-18.91 -71.74,-43.77 -99.5,-74.92 -27.52,-31.05 -49.31,-66.86 -64.82,-107.56 -15.43,-40.78 -23.12,-83.33 -23.12,-127.76 0,-46.29 7.4,-89.95 22.65,-131.68 15.05,-41.33 35.92,-77.71 62.29,-108.67 26.38,-30.97 57.8,-55.57 94.36,-73.78 36.59,-17.79 76.6,-26.85 120.1,-26.85 55.46,0 104.56,14.31 147.3,43.29 42.84,28.82 76.4,64.08 100.64,105.22l0 -400.37 85.58 0 0 807.97c0,23.67 10.18,35.45 30.38,35.45l0 75.39c-12.8,2.52 -22.72,3.74 -30.38,3.74 -20.12,0 -37.71,-6.47 -52.76,-19.45 -15.25,-13 -22.62,-28.71 -22.62,-47.24l0 -64.05c-26.2,42.66 -61.38,76.59 -105.7,101.75 -44.7,25.26 -90.72,37.78 -138.6,37.78z"/>
  <path class="fil1" d="M14643.04 1250.03c-2.52,-35.18 -10.84,-67.35 -24.5,-96.16 -13.95,-29 -31.53,-53.87 -53.03,-75 -21.23,-20.87 -46.02,-37.34 -74.26,-49.02 -27.97,-11.78 -57.98,-17.59 -89.88,-17.59 -32,0 -62.11,5.81 -90.72,17.59 -28.45,11.68 -53.42,28.15 -74.74,49.02 -21.5,21.13 -38.62,46.28 -51.62,75.66 -13.2,29.34 -20.79,61.06 -23.38,95.5l482.11 0zm-241.66 375.04c-47.98,0 -91.68,-9.07 -131.5,-27.04 -39.94,-18.14 -74.47,-42.82 -103.81,-74.27 -29.48,-31.49 -52.29,-67.6 -68.75,-108.75 -16.2,-41.17 -24.52,-85.13 -24.52,-132.08 0,-46.28 8.33,-89.77 24.52,-130.46 16.47,-40.58 39.08,-76.33 67.97,-106.99 29.01,-30.49 63.71,-54.7 103.93,-73.04 40.21,-17.76 83.99,-26.83 130.94,-26.83 47.69,0 91.54,9.07 131.39,26.83 39.77,18.34 74.07,42.84 102.7,73.81 28.43,30.93 50.69,66.57 66.68,106.89 15.91,40.3 23.76,83.14 23.76,128.4l0 20.12c0,6.73 -0.48,11.31 -1.11,13.84l-561.45 0c2.53,35.18 10.85,67.82 24.76,97.64 13.65,29.64 31.44,55.57 53.42,77.25 21.68,22.08 46.66,38.92 74.71,51.17 28.16,12.06 58.27,18.06 89.98,18.06 21.05,0 42.1,-2.81 63.13,-8.81 20.86,-5.8 40.32,-13.64 57.9,-23.86 17.58,-9.99 33.48,-22.35 47.88,-37.04 14.13,-14.76 24.97,-30.93 32.55,-48.54l74.26 20.12c-10.18,24.31 -24.23,46.59 -42.73,66.23 -18.54,19.62 -39.85,36.74 -64.08,51.62 -24.5,14.51 -51.43,25.83 -80.81,33.96 -29.34,7.85 -59.83,11.78 -91.73,11.78z"/>
  <path class="fil1" d="M4814.69 2872.24c0,-99.05 18.69,-196.7 56.21,-292.67 37.22,-95.95 91.83,-182.08 163.3,-258.49 71.72,-76.03 158.71,-137.78 260.75,-185.18 102.23,-47.24 218.85,-70.81 349.98,-70.81 156.85,0 293.12,32.37 408.07,97.09 115.23,64.9 200.81,150.67 257.3,257.3l-340.84 242.42c-14.96,-39.55 -35.34,-72.29 -60.32,-98.3 -25.26,-25.9 -53.21,-46.48 -83.52,-61.72 -30.59,-15.35 -62.19,-25.9 -95.13,-32 -32.63,-6.15 -64.34,-9.15 -94.83,-9.15 -64.08,0 -119.17,12.43 -165.64,37.67 -46.76,25.16 -84.65,58.01 -114.48,98.31 -29.64,40.41 -51.8,86.33 -66.23,137.2 -14.58,51.06 -21.68,101.68 -21.68,152.18 0,56.49 8.33,110.55 24.97,162.46 16.92,51.72 41.15,97.35 73.33,137.2 31.9,39.47 71.27,71.18 117.74,94.76 46.48,23.56 98.57,35.44 156.66,35.44 30.48,0 61.71,-3.47 93.72,-10.2 32.07,-6.92 62.86,-18.32 92.68,-34.41 29.64,-15.99 56.2,-36.56 80.07,-61.64 23.57,-25.16 42.36,-56.12 56.01,-92.77l363.64 217.26c-24.5,59.46 -61.54,112.89 -111.03,160.03 -49.56,47.5 -105.97,87.06 -169.18,118.96 -63.33,32.16 -131.12,56.39 -203.53,73.33 -72.38,16.73 -143.01,25.05 -211.65,25.05 -120.36,0 -230.46,-23.83 -330.34,-72.01 -100,-48.17 -186.03,-111.67 -258.44,-190.88 -72.37,-79.33 -128.39,-169.31 -168.24,-269.95 -39.55,-100.64 -59.38,-202.66 -59.38,-306.47z"/>
  <path class="fil1" d="M6822.67 2888.41c0,54.8 7.67,107.74 22.9,158.91 15.06,51.14 37.97,96.42 68.57,135.98 30.48,39.56 68.82,71.74 115.32,96.05 46.48,24.5 101.83,36.56 165.91,36.56 64.05,0 119.62,-12.51 167.05,-37.67 47.14,-25.26 85.55,-57.83 115.4,-98.41 29.64,-40.41 51.8,-86.51 66.41,-138.23 14.29,-51.92 21.51,-104.46 21.51,-157.88 0,-54.79 -7.67,-107.74 -22.65,-158.88 -15.25,-51.06 -38.62,-95.97 -69.85,-134.78 -31.23,-38.89 -70.16,-70.15 -116.63,-93.99 -46.47,-23.56 -101.11,-35.37 -163.57,-35.37 -64.08,0 -119.35,12.25 -165.83,36.49 -46.59,24.5 -84.92,56.97 -115.41,97.16 -30.59,40.51 -53.04,86.24 -67.34,137.41 -14.61,50.88 -21.79,103.24 -21.79,156.66zm368.12 823.13c-123.54,0 -235.58,-23.67 -336.14,-70.81 -100.64,-47.22 -186.67,-109.41 -258.41,-186.48 -71.75,-76.78 -127.29,-164.99 -167.05,-264.14 -39.56,-99.02 -59.47,-201.07 -59.47,-306.4 0,-106.52 20.57,-209.49 61.83,-308.81 41.15,-98.96 98.75,-186.22 172.82,-261.58 73.71,-75.67 161.44,-135.82 262.71,-180.7 101.59,-45.1 212.41,-67.53 332.95,-67.53 123.47,0 235.51,23.57 336.07,70.79 100.71,47.43 186.77,109.89 258.41,187.62 71.74,77.73 127.01,166.01 165.9,265.33 38.93,98.96 58.28,200.24 58.28,303.98 0,106.79 -20.57,209.32 -61.83,307.7 -41.06,98.31 -98.2,185.29 -171.61,260.67 -73.06,75.48 -160.32,136.08 -261.61,181.81 -101.57,45.62 -212.39,68.56 -332.86,68.56z"/>
  <path class="fil1" d="M8654.39 2810.67l281.06 0c27.6,0 53.02,-15.25 76.88,-45.84 23.57,-30.49 35.34,-73.04 35.34,-128.13 0,-56.21 -13.65,-99.5 -41.15,-129.06 -27.49,-29.94 -54.8,-44.7 -82.4,-44.7l-269.73 0 0 347.73zm-446.04 887.11l0 -1623.46 745.7 0c79.04,0 152.18,16.18 219.52,49 66.86,32.92 124.4,75.48 172.54,128.12 47.91,52.58 85.77,112.81 113.07,180.7 27.6,67.82 41.26,136.09 41.26,204.54 0,94.57 -20.57,182.75 -61.82,264.21 -41.15,81.66 -98.28,148.26 -171.43,200.07l343.14 596.8 -503.17 0 -285.93 -498.51 -166.84 0 0 498.51 -446.04 0z"/>
  <path class="fil1" d="M10198.15 2810.67l281.05 0c27.49,0 52.94,-15.25 76.78,-45.84 23.67,-30.49 35.44,-73.04 35.44,-128.13 0,-56.21 -13.64,-99.5 -41.14,-129.06 -27.6,-29.94 -54.91,-44.7 -82.41,-44.7l-269.72 0 0 347.73zm-446.04 887.11l0 -1623.46 745.61 0c79.11,0 152.26,16.18 219.49,49 66.89,32.92 124.5,75.48 172.65,128.12 47.91,52.58 85.76,112.81 113.1,180.7 27.49,67.82 41.15,136.09 41.15,204.54 0,94.57 -20.57,182.75 -61.75,264.21 -41.15,81.66 -98.38,148.26 -171.43,200.07l343.06 596.8 -503.2 0 -285.9 -498.51 -166.75 0 0 498.51 -446.04 0z"/>
  <polygon class="fil1" points="11295.64,2074.28 11741.66,2074.28 11741.66,3697.73 11295.64,3697.73 "/>
  <polygon class="fil1" points="13177.52,3309.17 13177.52,3697.78 12020.39,3697.78 12020.39,2074.33 13156.95,2074.33 13156.95,2462.94 12466.34,2462.94 12466.34,2691.72 13056.31,2691.72 13056.31,3052.91 12466.34,3052.91 12466.34,3309.17 "/>
  <polygon class="fil1" points="13831.76,2899.72 13831.76,3697.81 13385.72,3697.81 13385.72,2074.33 13733.48,2074.33 14385.16,2899.72 14385.16,2074.33 14830.93,2074.33 14830.93,3697.81 14476.54,3697.81 "/>
  <polygon class="fil1" points="16374.42,2462.97 15907.97,2462.97 15907.97,3697.81 15462.04,3697.81 15462.04,2462.97 14993.28,2462.97 14993.28,2074.36 16374.42,2074.36 "/>
  <polygon class="fil1" points="17693.94,3309.17 17693.94,3697.78 16536.8,3697.78 16536.8,2074.33 17673.36,2074.33 17673.36,2462.94 16982.75,2462.94 16982.75,2691.72 17572.72,2691.72 17572.72,3052.91 16982.75,3052.91 16982.75,3309.17 "/>
  <path class="fil1" d="M18885.54 2604.8c-45.81,-27.6 -92.95,-51.91 -141.79,-73.15 -41.25,-18.43 -87.44,-35.63 -138.34,-51.54 -51.14,-15.99 -101.09,-24.13 -149.93,-24.13 -39.56,0 -71.26,6.28 -94.83,18.24 -23.57,12.25 -35.45,32.92 -35.45,61.82 0,21.5 6.73,38.92 20.57,52.76 13.65,13.65 33.59,26.09 59.49,37.68 25.9,11.42 57.43,22.45 94.84,33.11 37.22,10.66 79.58,23.57 127.01,38.92 74.55,22.8 142.07,48.07 202.2,75.38 60.32,27.6 111.78,59.86 154.52,97.46 42.55,37.14 75.48,82.51 98.38,135.98 22.9,53.13 34.23,117.96 34.23,194.28 0,97.64 -18.06,179.56 -53.68,245.97 -35.9,66.12 -83.33,119.07 -141.87,158.89 -58.75,39.57 -125.05,68.19 -198.95,85.58 -73.96,17.6 -148.23,26.37 -222.96,26.37 -59.49,0 -120.55,-4.66 -182.92,-13.65 -62.49,-9.25 -124.79,-22.27 -186.33,-38.81 -61.72,-16.92 -121.21,-36.86 -178.35,-59.49 -57.35,-22.9 -110.29,-48.81 -158.91,-78l192.03 -390.94c53.2,33.59 108.94,63.41 166.75,89.23 48.81,22.99 104.09,43.29 165.91,61.91 61.72,18.24 124.65,27.31 188.73,27.31 48.81,0 82.58,-6.55 101.76,-19.46 18.98,-12.99 28.45,-30.11 28.45,-51.32 0,-22.93 -9.46,-42.4 -28.45,-58.38 -19.18,-16.17 -45.55,-30.11 -78.85,-42.26 -33.75,-12.25 -72.18,-24.6 -115.69,-36.59 -43.19,-12.33 -89.51,-26.83 -138.32,-43.58 -71.66,-24.5 -133.28,-50.59 -185.11,-78.85 -51.99,-28.12 -94.53,-60.12 -128.12,-95.94 -33.49,-35.93 -58.28,-76.78 -74.27,-122.43 -15.99,-45.84 -24.02,-98.31 -24.02,-157.77 0,-89.98 16.44,-169.38 48.99,-237.75 32.82,-68.83 77.55,-125.88 133.93,-171.72 56.21,-45.54 120.74,-80.25 193.22,-104.01 72.41,-23.64 148.99,-35.44 229.91,-35.44 59.46,0 117.26,5.7 173.76,17.01 56.49,11.62 110.85,26.01 163.58,43.59 52.46,17.58 101.56,36.59 147.3,57.05 45.84,20.68 86.99,40.04 123.57,58.35l-192.03 368.33z"/>
  <path class="fil2" d="M1683.85 451.59c200.7,-150.5 426.04,-275.19 672.96,-367.42 26.82,-10.03 110.32,-37.93 137.23,-46.98 -22.79,-7.53 -71.06,-11.54 -101.47,-16.76 -77.21,-10.83 -155.75,-17.48 -235.41,-19.66 -16.98,-0.45 -34.02,-0.71 -51.11,-0.76 -2.1,-0.01 -4.21,-0.01 -6.31,-0.01 -710.2,0 -1337.76,353.21 -1716.88,893.5 -22.75,61.04 -42.64,123.57 -59.31,187.6 323.83,-397.53 820.36,-641.83 1360.31,-629.5z"/>
  <path class="fil3" d="M789.38 3550.67c-363.61,-973.43 -135.73,-2033.49 516.43,-2754.28 -459.4,121.21 -905.6,485.06 -1142.69,974.84 -73.52,151.88 -124.5,308.86 -154.51,467.11 29.64,441.77 196.14,846.07 457.5,1170.81 124.52,154.67 279.81,300.54 442.82,414.57 -44.36,-87.73 -84.34,-178.8 -119.55,-273.05z"/>
  <path class="fil4" d="M1841.85 462.49c935.76,107.93 1607.02,953.98 1499.16,1889.74 -49.66,431.05 -256.15,805.64 -555.74,1074.15 142.61,-44.93 278.84,-106.03 406.02,-181.29 399,-856.93 319.94,-1905.2 -294.35,-2716.96 -136.3,-180.11 -291.08,-337.76 -459.54,-472.58 -26.91,9.06 -53.77,18.58 -80.58,28.61 -246.92,92.23 -472.25,216.92 -672.96,367.42 52.29,1.19 105,4.79 157.99,10.9z"/>
  <path class="fil5" d="M3186.47 3888.34c0.11,-0.07 0.23,-0.15 0.36,-0.19 76.65,-79 147.08,-165.53 209.94,-259.27 -183.29,112.64 -387.16,188.38 -599.16,222.85 -94.54,108.72 -199.28,210.85 -314.04,304.98 253.07,-46.85 490.35,-139.22 702.9,-268.36zm-1365.19 -179.5c-815.74,-394.87 -1157.03,-1376.36 -762.13,-2192.18 181.9,-375.8 488.4,-650.5 845.68,-799.38 -203.93,-6.33 -406.27,20.96 -599.01,79.11 -660.32,720.78 -889.3,1771.6 -525.68,2745.03 35.21,94.25 75.19,185.31 119.5,273.12 339.93,237.83 753.7,377.38 1200.1,377.38 397.89,0 769.9,-110.91 1086.74,-303.55 0.12,-0.06 0.23,-0.14 0.35,-0.21 76.65,-79 147.08,-165.53 209.94,-259.27 -183.29,112.64 -387.16,188.38 -599.16,222.85 -321.21,52.23 -661.09,9.69 -976.33,-142.89zm662.29 447.87c253.2,-46.87 490.44,-139.25 702.91,-268.35 -212.47,129.09 -449.71,221.47 -702.91,268.35z"/>
  <path class="fil6" d="M3186.47 3888.34c0.11,-0.07 0.23,-0.15 0.36,-0.19 76.65,-79 159.32,-176.83 222.18,-270.57 -183.29,112.64 -399.4,199.68 -611.4,234.15 -94.54,108.72 -199.28,210.85 -314.04,304.98 253.07,-46.85 490.35,-139.22 702.9,-268.36z"/>
  <path class="fil7" d="M2797.6 3851.73c212,-34.47 415.87,-110.21 599.16,-222.85 -62.86,93.74 -133.29,180.27 -209.95,259.25 604.35,-367.35 1008.85,-1031.92 1008.85,-1792.16 0,-149.46 -15.64,-295.28 -45.39,-435.88 -72.39,627.96 -454.06,1286.22 -959.11,1585.07 -102.42,219.96 -234.65,423.8 -393.56,606.56z"/>
  <path class="fil8" d="M3191.17 3245.16c505.05,-298.86 886.72,-957.11 959.11,-1585.07 -78.84,-372.75 -256.78,-708.91 -504.93,-979.67 -298.77,-325.99 -699.33,-557.16 -1151.3,-643.23 -18.91,5.9 -37.79,12.02 -56.64,18.37 925.39,800.91 1271.55,2077.59 753.77,3189.6z"/>
 </g>
</svg>
